<svg width="23.000000" height="26.000000" viewBox="0 0 23 26" fill="none" xmlns="http://www.w3.org/2000/svg" xmlns:xlink="http://www.w3.org/1999/xlink">
	<desc>
			Created with Pixso.
	</desc>
	<defs/>
	<path id="G" d="M18.34 13.07L22.4 13.07L22.4 21.37C20.12 23.92 16.86 25.2 12.6 25.2C9.01 25.2 6.01 24 3.6 21.62C1.2 19.23 0 16.25 0 12.67C0 9.09 1.21 6.09 3.65 3.67C6.13 1.22 9.11 0 12.6 0C16.1 0 19 1.01 21.31 3.03L19.13 6.16C17.45 4.73 15.39 4.02 12.95 4.02C10.48 4.02 8.4 4.83 6.72 6.46C5.07 8.05 4.25 10.12 4.25 12.67C4.25 15.22 5.04 17.29 6.62 18.88C8.24 20.44 10.23 21.22 12.6 21.22C14.91 21.22 16.82 20.72 18.34 19.73L18.34 13.07Z" fill="#161C24" fill-opacity="1.000000" fill-rule="nonzero"/>
</svg>
