<svg width="20.000000" height="25.000000" viewBox="0 0 20 25" fill="none" xmlns="http://www.w3.org/2000/svg" xmlns:xlink="http://www.w3.org/1999/xlink">
	<desc>
			Created with Pixso.
	</desc>
	<defs/>
	<path id="s" d="M10.41 25C6.48 25 2.94 23.77 -0.2 21.32L2.29 17.32C5.08 19.46 7.84 20.53 10.55 20.53C11.68 20.53 12.58 20.27 13.23 19.75C13.93 19.18 14.28 18.48 14.28 17.65C14.28 16.42 12.67 15.33 9.43 14.36C9.34 14.32 9.23 14.28 9.1 14.23C9.02 14.19 8.95 14.17 8.91 14.17C3.84 12.81 1.3 10.51 1.3 7.28C1.3 5 2.15 3.19 3.86 1.83C5.61 0.47 7.9 -0.2 10.74 -0.2C13.54 -0.2 16.2 0.63 18.74 2.29L16.84 6.1C14.87 4.78 12.71 4.13 10.35 4.13C7.6 4.13 6.22 5 6.22 6.75C6.22 7.5 6.48 8.04 7.01 8.39C7.57 8.7 8.49 9 9.76 9.31C11.68 9.84 13.3 10.36 14.61 10.89C15.48 11.28 16.25 11.7 16.9 12.13C18.56 13.27 19.4 15 19.4 17.32C19.4 19.59 18.54 21.45 16.84 22.9C15.18 24.3 13.04 25 10.41 25Z" fill="#4295E4" fill-opacity="1.000000" fill-rule="nonzero"/>
</svg>
