<svg width="24.000000" height="20.000000" viewBox="0 0 24 20" fill="none" xmlns="http://www.w3.org/2000/svg" xmlns:xlink="http://www.w3.org/1999/xlink">
	<desc>
			Created with Pixso.
	</desc>
	<defs/>
	<path id="Vector" d="M23.61 2.34C22.7 2.74 21.73 3.02 20.71 3.14C21.76 2.51 22.55 1.51 22.93 0.34C21.94 0.93 20.85 1.35 19.72 1.57C18.96 0.76 17.96 0.22 16.86 0.04C15.76 -0.14 14.64 0.04 13.66 0.57C12.68 1.09 11.9 1.93 11.44 2.94C10.98 3.95 10.87 5.09 11.12 6.17C9.12 6.07 7.16 5.55 5.36 4.64C3.57 3.73 1.99 2.46 0.72 0.9C0.29 1.65 0.04 2.51 0.04 3.44C0.04 4.27 0.24 5.09 0.64 5.82C1.03 6.55 1.59 7.18 2.28 7.64C1.48 7.61 0.7 7.4 0 7.01L0 7.07C0 8.24 0.4 9.37 1.14 10.27C1.88 11.17 2.91 11.79 4.05 12.02C3.3 12.22 2.52 12.25 1.77 12.11C2.09 13.11 2.72 13.99 3.56 14.61C4.41 15.24 5.43 15.59 6.48 15.61C4.7 17.01 2.49 17.77 0.21 17.77C-0.19 17.77 -0.59 17.75 -0.99 17.7C1.32 19.18 4 19.97 6.75 19.97C16.03 19.97 21.1 12.28 21.1 5.61C21.1 5.39 21.1 5.17 21.09 4.96C22.08 4.24 22.93 3.36 23.61 2.35L23.61 2.34Z" fill="#FFFFFF" fill-opacity="1.000000" fill-rule="nonzero"/>
</svg>
